HIERARCHY
ROOT Hips
{
	OFFSET 0.000000 0.000000 0.000000
	CHANNELS 6 Xposition Yposition Zposition Xrotation Yrotation Zrotation
	JOINT LeftUpLeg_virtual
	{
		OFFSET 0.000000 0.000000 0.000000
		CHANNELS 3 Xrotation Yrotation Zrotation
		JOINT LeftUpLeg
		{
			OFFSET 13.026900 -6.336304 -1.092800
			CHANNELS 3 Xrotation Yrotation Zrotation
			JOINT LeftLeg
			{
				OFFSET 0.524474 -46.096886 9.782700
				CHANNELS 3 Xrotation Yrotation Zrotation
				JOINT LeftFoot
				{
					OFFSET -0.524474 -53.427422 -12.948200
					CHANNELS 3 Xrotation Yrotation Zrotation
					JOINT LeftToeBase
					{
						OFFSET 0.192200 -14.009700 16.364100
						CHANNELS 3 Xrotation Yrotation Zrotation
						JOINT LeftToe_End
						{
							OFFSET -1.784700 -0.561700 9.474800
							CHANNELS 3 Xrotation Yrotation Zrotation
							End Site
							{
								OFFSET 0 0 0
							}
						}
					}
				}
			}
		}
	}
	JOINT RightUpLeg_virtual
	{
		OFFSET 0.000000 0.000000 0.000000
		CHANNELS 3 Xrotation Yrotation Zrotation
		JOINT RightUpLeg
		{
			OFFSET -12.883000 -6.336304 -1.092800
			CHANNELS 3 Xrotation Yrotation Zrotation
			JOINT RightLeg
			{
				OFFSET -0.524587 -46.096825 9.782800
				CHANNELS 3 Xrotation Yrotation Zrotation
				JOINT RightFoot
				{
					OFFSET 0.524587 -53.427383 -12.948300
					CHANNELS 3 Xrotation Yrotation Zrotation
					JOINT RightToeBase
					{
						OFFSET -0.192200 -14.009700 16.364100
						CHANNELS 3 Xrotation Yrotation Zrotation
						JOINT RightToe_End
						{
							OFFSET 1.784700 -0.561700 9.474800
							CHANNELS 3 Xrotation Yrotation Zrotation
							End Site
							{
								OFFSET 0 0 0
							}
						}
					}
				}
			}
		}
	}
	JOINT Spine_virtual
	{
		OFFSET 0.000000 0.000000 0.000000
		CHANNELS 3 Xrotation Yrotation Zrotation
		JOINT Spine
		{
			OFFSET 0.072000 7.257294 -0.789700
			CHANNELS 3 Xrotation Yrotation Zrotation
			JOINT Spine1
			{
				OFFSET 0.000000 12.508769 -0.658067
				CHANNELS 3 Xrotation Yrotation Zrotation
				JOINT Spine1_split
				{
					OFFSET 0.000000 12.508769 -0.658067
					CHANNELS 3 Xrotation Yrotation Zrotation
					JOINT Spine2
					{
						OFFSET 0.000000 12.508769 -0.658067
						CHANNELS 3 Xrotation Yrotation Zrotation
						JOINT Neck_virtual
						{
							OFFSET 0.000000 0.000000 0.000000
							CHANNELS 3 Xrotation Yrotation Zrotation
							JOINT Neck
							{
								OFFSET 0.000000 14.033295 7.520400
								CHANNELS 3 Xrotation Yrotation Zrotation
								JOINT Head
								{
									OFFSET 0.000000 8.198502 5.703100
									CHANNELS 3 Xrotation Yrotation Zrotation
									JOINT HeadTop_End
									{
										OFFSET 0.000000 17.760803 13.332701
										CHANNELS 3 Xrotation Yrotation Zrotation
										End Site
										{
											OFFSET 0 0 0
										}
									}
								}
							}
						}
						JOINT LeftShoulder_virtual
						{
							OFFSET 0.000000 0.000000 0.000000
							CHANNELS 3 Xrotation Yrotation Zrotation
							JOINT LeftShoulder
							{
								OFFSET 6.292450 5.785301 -0.669000
								CHANNELS 3 Xrotation Yrotation Zrotation
								JOINT LeftShoulder_split
								{
									OFFSET 6.292450 5.785301 -0.669000
									CHANNELS 3 Xrotation Yrotation Zrotation
									JOINT LeftArm
									{
										OFFSET 13.907140 -6.093903 1.965100
										CHANNELS 3 Xrotation Yrotation Zrotation
										JOINT LeftForeArm
										{
											OFFSET 34.140198 0.000000 0.000000
											CHANNELS 3 Xrotation Yrotation Zrotation
											JOINT LeftHand
											{
												OFFSET 40.960209 0.000000 0.000000
												CHANNELS 3 Xrotation Yrotation Zrotation
												End Site
												{
													OFFSET 0 0 0
												}
											}
										}
									}
								}
							}
						}
						JOINT RightShoulder_virtual
						{
							OFFSET 0.000000 0.000000 0.000000
							CHANNELS 3 Xrotation Yrotation Zrotation
							JOINT RightShoulder
							{
								OFFSET -6.292450 5.785301 -0.669000
								CHANNELS 3 Xrotation Yrotation Zrotation
								JOINT RightShoulder_split
								{
									OFFSET -6.292450 5.785301 -0.669000
									CHANNELS 3 Xrotation Yrotation Zrotation
									JOINT RightArm
									{
										OFFSET -13.907140 -6.093903 1.965100
										CHANNELS 3 Xrotation Yrotation Zrotation
										JOINT RightForeArm
										{
											OFFSET -34.140198 0.000000 0.000000
											CHANNELS 3 Xrotation Yrotation Zrotation
											JOINT RightHand
											{
												OFFSET -40.960209 0.000000 0.000000
												CHANNELS 3 Xrotation Yrotation Zrotation
												End Site
												{
													OFFSET 0 0 0
												}
											}
										}
									}
								}
							}
						}
					}
				}
			}
		}
	}
}
MOTION
Frames: 7
Frame Time: 0.03333333
13.613964 84.633873 -4.515020 0.000000 0.000000 0.000000 16.412963 -81.033317 17.038228 -42.838380 -15.279449 25.864794 48.057409 -10.616429 8.934401 -6.978590 -3.725281 -25.889707 -1.696075 1.091356 -1.573415 0.000000 0.000000 0.000000 13.680523 -81.298027 15.534994 -16.645760 11.568546 -30.051555 42.747313 12.321195 -8.721761 -14.709849 -0.507017 28.001108 -10.878888 0.862932 0.430458 0.000000 0.000000 0.000000 20.795086 -77.718100 21.100350 1.714443 5.009496 3.323942 0.931344 3.508385 1.147445 1.671442 -2.512783 1.108389 0.000000 0.000000 0.000000 0.992135 3.318013 0.988235 -2.913035 7.947267 -1.539180 0.990131 38.627247 -4.439388 0.000000 0.000000 0.000000 0.950287 3.588685 1.063723 1.282670 10.097519 -9.994183 -2.738975 -1.633766 -2.056515 -11.153818 11.612490 -65.873459 -179.838539 -64.203915 -177.095563 0.000000 0.000000 0.000000 1.787989 3.736930 0.584449 1.814749 9.488699 10.362375 -1.006122 3.212247 3.214795 -15.403815 33.912907 47.572151 -178.038443 73.559846 177.646759 0.000000 0.000000 0.000000 
13.493960 83.917702 -4.356359 0.000000 0.000000 0.000000 10.858023 -80.588398 11.335063 -43.572994 -14.665386 25.835117 47.410365 -11.837760 9.808719 -6.830061 -6.337535 -26.442295 -2.895835 1.194788 -1.344615 0.000000 0.000000 0.000000 9.054968 -79.671240 10.658351 -14.827425 9.413262 -29.770892 43.555088 11.114101 -8.871735 -14.573040 -1.918622 27.109320 -11.321768 0.593021 1.434562 0.000000 0.000000 0.000000 18.751053 -76.842907 18.653359 1.242264 5.256564 3.207037 0.841655 3.626802 1.161841 1.550462 -3.399291 1.152447 0.000000 0.000000 0.000000 0.819568 3.465432 0.960551 -2.332144 7.542207 -1.584447 1.798665 37.411347 -4.257679 0.000000 0.000000 0.000000 0.953958 3.651684 1.101177 1.137401 9.967630 -8.995443 -2.183042 -1.345206 -3.204421 -9.218705 8.964749 -66.044582 179.729734 -64.123032 -177.307572 0.000000 0.000000 0.000000 1.482913 3.825367 0.623053 1.868923 8.994593 9.584513 -1.314292 4.022079 3.329376 -13.583323 32.774731 47.127311 -177.224025 72.030622 176.696666 0.000000 0.000000 0.000000 
13.255072 87.134697 -4.233099 0.000000 0.000000 0.000000 6.567147 -77.901552 6.912373 -43.890034 -13.289866 24.895107 41.962999 -14.081914 9.800054 -3.195257 -10.810778 -27.568269 -3.421324 1.101747 -0.762010 0.000000 0.000000 0.000000 6.675965 -76.277804 8.212796 -13.357613 6.769163 -28.763689 42.303388 10.443897 -9.037267 -10.495991 -2.007839 27.110472 -15.176974 0.060731 2.674368 0.000000 0.000000 0.000000 14.756950 -74.734967 14.358178 0.874525 5.270955 3.134573 0.610906 3.625147 1.087993 1.080654 -4.087399 1.147128 0.000000 0.000000 0.000000 0.598388 3.484630 0.874083 -1.692806 7.098984 -1.607798 2.672553 35.481419 -3.566508 0.000000 0.000000 0.000000 0.822906 3.612258 1.054964 0.989013 9.414290 -7.576685 -1.286937 -0.819825 -4.006678 -7.301511 4.856780 -64.335293 179.558952 -63.725501 -177.578457 0.000000 0.000000 0.000000 1.085900 3.773810 0.593736 1.838927 8.453379 8.642757 -1.662753 4.682889 3.251819 -11.142025 30.595143 46.249581 -177.258763 69.396088 176.563682 0.000000 0.000000 0.000000 
12.881195 93.524857 -4.308622 0.000000 0.000000 0.000000 4.866194 -73.534937 5.094293 -43.080749 -11.047933 23.495595 33.062914 -15.975114 8.413315 2.996043 -15.385254 -27.586598 -2.846866 0.874349 -0.106257 0.000000 0.000000 0.000000 5.421365 -71.641520 6.960863 -12.518797 4.123561 -27.197496 39.778537 10.418924 -9.197709 -4.450477 -0.925884 27.681162 -20.207736 -0.720795 3.784839 0.000000 0.000000 0.000000 10.507636 -71.453587 10.075072 0.730128 5.063082 3.110666 0.343650 3.513646 0.951400 0.520820 -4.053154 1.184122 0.000000 0.000000 0.000000 0.365633 3.381521 0.758274 -1.147293 6.643199 -1.647586 3.348324 33.048813 -2.551942 0.000000 0.000000 0.000000 0.592407 3.486496 0.966073 0.913640 8.461463 -6.179779 -0.349733 -0.244344 -4.393547 -5.600494 0.059997 -61.257378 179.746974 -63.173601 -177.705266 0.000000 0.000000 0.000000 0.711730 3.606998 0.508127 1.705927 7.950163 7.658326 -2.123289 4.914210 2.945087 -8.513458 27.628575 44.847883 -177.823306 66.740340 176.921762 0.000000 0.000000 0.000000 
12.239918 101.534561 -4.619341 0.000000 0.000000 0.000000 4.678059 -68.542499 4.769319 -40.900959 -7.807516 21.977662 23.701378 -15.651052 6.238886 9.038318 -17.275545 -24.893067 -1.347039 0.581994 0.243544 0.000000 0.000000 0.000000 4.528590 -66.288407 6.135743 -12.283308 1.440004 -24.989973 37.363215 10.003658 -9.165330 0.155657 -0.014831 27.078287 -22.576454 -1.500609 4.523703 0.000000 0.000000 0.000000 7.192376 -67.270806 7.025899 0.802469 4.657529 3.131891 0.181710 3.312508 0.788209 0.070806 -3.369237 1.148657 0.000000 0.000000 0.000000 0.160181 3.167645 0.640164 -0.835684 6.177901 -1.733150 3.669275 30.447535 -1.467478 0.000000 0.000000 0.000000 0.397520 3.279169 0.855919 0.984678 7.181393 -5.320863 0.209329 0.061870 -4.331534 -4.201106 -4.639737 -57.619524 -179.713137 -62.696062 -177.670979 0.000000 0.000000 0.000000 0.481709 3.372354 0.417535 1.513186 7.591544 6.778842 -2.379415 4.777963 2.284181 -6.265385 24.211286 43.237068 -178.585596 64.905587 177.494418 0.000000 0.000000 0.000000 
11.391280 109.368477 -5.161207 0.000000 0.000000 0.000000 4.804540 -63.769378 4.857265 -37.163841 -3.827865 20.340686 16.502459 -12.990750 4.566557 12.260254 -15.294508 -20.034601 -0.182059 0.286070 0.228832 0.000000 0.000000 0.000000 3.475912 -60.989409 5.309381 -13.239738 -0.848041 -22.463229 35.966557 8.636165 -8.897124 1.372792 -0.208903 24.217225 -19.379164 -1.849369 4.766820 0.000000 0.000000 0.000000 4.993421 -62.538633 5.323791 1.120236 4.085719 3.083839 0.226185 3.030059 0.617965 0.231908 -2.592288 1.032206 0.000000 0.000000 0.000000 0.034006 2.849451 0.537437 -0.877751 5.745883 -1.889928 3.489669 27.866513 -0.471127 0.000000 0.000000 0.000000 0.327017 2.980423 0.742862 1.183014 5.709419 -5.205396 0.200583 0.052288 -3.991583 -3.417844 -8.491290 -54.393072 -179.068695 -62.821840 -177.608032 0.000000 0.000000 0.000000 0.454993 3.079241 0.324364 1.285536 7.391735 6.105688 -2.404040 4.382574 1.425945 -4.796745 20.754334 41.708338 -179.356615 64.428519 178.165129 0.000000 0.000000 0.000000 
10.452833 115.598572 -5.791025 0.000000 0.000000 0.000000 4.829337 -59.703196 5.216696 -32.181188 0.133652 18.894800 13.036620 -9.690784 3.747136 11.517285 -10.978560 -15.641944 -0.602827 0.060793 0.119262 0.000000 0.000000 0.000000 2.450390 -55.904111 4.713694 -15.832565 -2.179457 -20.319400 35.682988 6.551371 -8.221988 -0.234823 -0.669676 19.952968 -11.864865 -1.638238 4.481034 0.000000 0.000000 0.000000 3.737966 -57.565620 4.742812 1.537183 3.382433 2.832929 0.538202 2.660288 0.450322 0.850125 -1.733941 0.855487 0.000000 0.000000 0.000000 0.045213 2.448768 0.463146 -1.204300 5.296949 -2.086606 2.867819 25.463676 0.288833 0.000000 0.000000 0.000000 0.417602 2.589466 0.620941 1.418331 4.183196 -5.845471 -0.408408 -0.160535 -3.337064 -3.543547 -11.069424 -52.181529 -178.505928 -63.698290 -177.642647 0.000000 0.000000 0.000000 0.600169 2.730585 0.228912 1.138106 7.300569 5.771430 -2.105164 3.879283 0.427812 -4.271593 17.573891 40.756832 179.927742 65.506493 178.923185 0.000000 0.000000 0.000000 
